<svg xmlns="http://www.w3.org/2000/svg" xml:space="preserve" width="16.5354in" height="16.5354in" version="1.1" style="shape-rendering:geometricPrecision; text-rendering:geometricPrecision; image-rendering:optimizeQuality; fill-rule:evenodd; clip-rule:evenodd"
viewBox="0 0 16535 16535"
 xmlns:xlink="http://www.w3.org/1999/xlink">
 <defs>
  <style type="text/css">
   <![CDATA[
    .fil0 {fill:#FFCC29}
    .fil1 {fill:#FFCC29;fill-rule:nonzero}
   ]]>
  </style>
 </defs>
 <g id="Layer_x0020_1">
  <metadata id="CorelCorpID_0Corel-Layer"/>
  <g id="_1483226725376">
   <path class="fil0" d="M8559 1945c3158,0 5718,2589 5718,5784 0,3194 -2560,5783 -5718,5783 -967,0 -1878,-243 -2677,-672l1285 -475c440,135 908,208 1392,208 2645,0 4790,-2169 4790,-4844 0,-2676 -2145,-4845 -4790,-4845 -2646,0 -4791,2169 -4791,4845 0,747 167,1455 466,2087l-514 996c-557,-892 -880,-1950 -880,-3083 0,-3195 2560,-5784 5719,-5784z"/>
   <path class="fil1" d="M6576 6215c142,-242 290,-448 443,-623 163,-186 332,-337 504,-456 383,-265 787,-380 1193,-377 442,4 883,148 1300,393 266,155 510,345 725,545 248,231 457,477 611,700l242 350 104 150 -181 20 -423 47c-155,17 -294,72 -423,144 -133,74 -260,170 -384,264l-1 0c-181,137 -358,271 -567,366 477,1239 430,2144 49,2840 -389,711 -1123,1193 -1998,1584 -54,24 -97,43 -129,57 -37,16 -81,35 -130,55l-4 1 -1111 416 -2 1 -163 56 -158 55 0 0 0 0 -5 2c-1243,429 -2499,863 -3167,1634l-4 5c-95,97 -201,142 -299,146 -66,3 -128,-14 -181,-46 -53,-32 -96,-80 -124,-139 -41,-87 -49,-199 -8,-325l1 -4c236,-636 468,-1221 696,-1756 237,-559 467,-1060 691,-1509l1 -3 544 -1018 2 -4c550,-949 1050,-1572 1489,-1949 545,-466 1008,-562 1366,-429 235,87 422,260 559,488 141,236 227,531 257,851 26,291 6,607 -64,916 -66,290 -176,575 -332,826 -230,370 -526,937 -1170,1189 -802,347 -1715,-58 -2096,-433 -142,297 -179,393 -336,759 -150,349 -304,722 -456,1103 300,-171 624,-322 962,-461 442,-183 910,-345 1376,-507l0 0 688 -240 0 0c167,-60 336,-122 511,-190l0 0c169,-66 336,-135 501,-209 736,-329 1347,-732 1643,-1328 296,-595 284,-1394 -221,-2522l-143 -319 -61 -137 149 -16 349 -35c228,-24 439,-184 660,-350l0 0c179,-136 363,-274 582,-380 -218,-234 -485,-461 -776,-633 -276,-162 -573,-274 -870,-293 -361,-22 -668,100 -927,300 -266,206 -483,495 -660,796 -82,140 -230,186 -367,164 -50,-8 -98,-25 -140,-50 -44,-25 -84,-59 -114,-100 -74,-100 -93,-235 -3,-382zm249 1873c-210,-77 -514,35 -914,452 -347,362 -836,1048 -1301,1920 961,853 1637,663 2269,-352 114,-184 194,-394 243,-609 51,-231 66,-468 46,-687 -18,-194 -61,-368 -129,-501 -56,-111 -129,-191 -214,-223z"/>
  </g>
 </g>
</svg>
